<?xml version="1.0" encoding="UTF-8" standalone="no"?>
<!-- Created with Inkscape (http://www.inkscape.org/) -->

<svg
   width="210mm"
   height="210mm"
   viewBox="0 0 210 210"
   version="1.1"
   id="svg1"
   xml:space="preserve"
   inkscape:version="1.3.2 (091e20e, 2023-11-25, custom)"
   sodipodi:docname="cctv.svg"
   inkscape:export-filename="..\Iconos\cctv.svg"
   inkscape:export-xdpi="96"
   inkscape:export-ydpi="96"
   xmlns:inkscape="http://www.inkscape.org/namespaces/inkscape"
   xmlns:sodipodi="http://sodipodi.sourceforge.net/DTD/sodipodi-0.dtd"
   xmlns="http://www.w3.org/2000/svg"
   xmlns:svg="http://www.w3.org/2000/svg"><sodipodi:namedview
     id="namedview1"
     pagecolor="#ffffff"
     bordercolor="#000000"
     borderopacity="0.25"
     inkscape:showpageshadow="2"
     inkscape:pageopacity="0.0"
     inkscape:pagecheckerboard="0"
     inkscape:deskcolor="#d1d1d1"
     inkscape:document-units="mm"
     inkscape:zoom="0.51213161"
     inkscape:cx="220.64641"
     inkscape:cy="323.15912"
     inkscape:window-width="1440"
     inkscape:window-height="829"
     inkscape:window-x="-8"
     inkscape:window-y="733"
     inkscape:window-maximized="1"
     inkscape:current-layer="layer1" /><defs
     id="defs1" /><g
     inkscape:label="Capa 1"
     inkscape:groupmode="layer"
     id="layer1"><path
       style="fill:#ffffff;stroke-width:4.31946;fill-opacity:1"
       d="m 4.0819334,187.80233 c -1.5231241,-1.52313 -1.7959396,-5.59055 -1.7959396,-26.77544 0,-29.56654 -0.3982543,-28.57138 11.4285682,-28.57138 10.057965,0 11.428525,1.24763 11.428525,10.40361 v 6.81177 l 13.28455,-0.3218 13.28455,-0.32223 6.715405,-17.59912 c 3.693473,-9.67953 6.712768,-18.16522 6.709528,-18.8571 C 65.13388,111.87879 51.962587,105.91272 35.867587,99.312736 15.956011,91.147683 5.9140278,86.44173 4.4449832,84.587218 0.20151369,79.230196 1.295889,76.394003 20.606069,42.704076 30.68209,25.124699 39.996202,9.8415388 41.304044,8.7415483 c 1.307843,-1.0999907 3.83904,-1.9999909 5.624873,-1.9999909 4.053976,0 142.810553,61.0843446 144.834793,63.7601546 3.49899,4.625051 3.05854,11.389825 -0.96672,14.849056 -5.95285,5.115694 -72.62442,45.961862 -75.02177,45.961862 -1.48658,0 -8.37977,-2.38148 -15.31818,-5.29223 -7.12593,-2.98941 -13.025995,-4.85423 -13.559057,-4.28572 -0.51907,0.55363 -4.116348,9.43558 -7.994004,19.73777 -10.465765,27.80545 -10.315231,27.48677 -13.845905,29.31256 -2.439883,1.2617 -7.717731,1.67037 -21.572577,1.67037 h -18.34241 v 6.77549 c 0,9.11572 -1.379717,10.36732 -11.428525,10.36732 -5.6005097,0 -8.3491901,-0.51246 -9.6326286,-1.7959 z M 165.51037,140.08296 c -11.74065,-5.13794 -21.6112,-9.61227 -21.93459,-9.94302 -0.49881,-0.51012 44.38748,-29.45617 47.57251,-30.678312 1.32783,-0.509524 12.04648,4.213232 14.85148,6.543702 1.10003,0.91391 1.99999,2.54813 1.99999,3.63162 0,1.08349 -3.34844,9.61803 -7.441,18.96566 -6.52326,14.89959 -10.43807,21.21001 -12.97125,20.9089 -0.4017,-0.0476 -10.33654,-4.29059 -22.07714,-9.42855 z"
       id="path8" /></g></svg>
