<?xml version="1.0" encoding="UTF-8" standalone="no"?>
<!-- Created with Inkscape (http://www.inkscape.org/) -->

<svg
   width="210mm"
   height="210mm"
   viewBox="0 0 210 210"
   version="1.1"
   id="svg1"
   xml:space="preserve"
   inkscape:version="1.3.2 (091e20e, 2023-11-25, custom)"
   sodipodi:docname="code.svg"
   inkscape:export-filename="..\Iconos\code.svg"
   inkscape:export-xdpi="96"
   inkscape:export-ydpi="96"
   xmlns:inkscape="http://www.inkscape.org/namespaces/inkscape"
   xmlns:sodipodi="http://sodipodi.sourceforge.net/DTD/sodipodi-0.dtd"
   xmlns="http://www.w3.org/2000/svg"
   xmlns:svg="http://www.w3.org/2000/svg"><sodipodi:namedview
     id="namedview1"
     pagecolor="#ffffff"
     bordercolor="#000000"
     borderopacity="0.25"
     inkscape:showpageshadow="2"
     inkscape:pageopacity="0.0"
     inkscape:pagecheckerboard="0"
     inkscape:deskcolor="#d1d1d1"
     inkscape:document-units="mm"
     inkscape:zoom="0.51213161"
     inkscape:cx="220.64641"
     inkscape:cy="323.15912"
     inkscape:window-width="1440"
     inkscape:window-height="829"
     inkscape:window-x="-8"
     inkscape:window-y="733"
     inkscape:window-maximized="1"
     inkscape:current-layer="layer1" /><defs
     id="defs1" /><g
     inkscape:label="Capa 1"
     inkscape:groupmode="layer"
     id="layer1"><g
       id="g3"
       transform="matrix(4.7190553,0,0,4.7190553,394.56849,-443.58248)"
       style="fill:#ffffff;fill-opacity:1"><path
         style="fill:#ffffff;fill-opacity:1"
         d="m -75.611214,137.20018 -0.69714,-0.54837 V 116.58189 96.51196 l 0.69714,-0.54837 c 0.671566,-0.528254 1.001061,-0.54837 8.982006,-0.54837 h 8.284867 l 0.07997,6.10922 c 0.07928,6.05663 0.08535,6.11358 0.704597,6.61459 0.573229,0.46377 1.11205,0.50536 6.548438,0.50536 h 5.923813 v 14.00371 14.00371 l -0.69714,0.54837 c -0.685631,0.53932 -0.931824,0.54837 -14.913276,0.54837 -13.981452,0 -14.227646,-0.009 -14.913277,-0.54837 z m 14.370042,-5.4709 c 0.149001,-0.5457 1.325701,-4.56406 2.614889,-8.92968 1.289188,-4.36563 2.296968,-8.06875 2.239511,-8.22917 -0.144984,-0.40479 -2.946979,-1.05124 -3.228445,-0.74484 -0.423932,0.46148 -5.377952,17.88149 -5.148409,18.10354 0.285282,0.27597 1.883355,0.73654 2.666428,0.76848 0.459395,0.0187 0.643323,-0.18932 0.856026,-0.96833 z m -4.071878,-4.08644 1.002712,-1.10988 -1.79583,-1.66825 -1.795831,-1.66824 1.795831,-1.66824 1.79583,-1.66824 -1.013079,-1.12136 c -0.557193,-0.61675 -1.188594,-1.08643 -1.403113,-1.04374 -0.602583,0.11992 -5.830269,5.05343 -5.829629,5.50158 6.62e-4,0.46338 5.415716,5.55625 5.90775,5.55625 0.182956,0 0.783867,-0.49945 1.335359,-1.10988 z m 14.007821,-1.67417 2.910416,-2.7722 -2.910416,-2.7722 c -1.600729,-1.52472 -3.024459,-2.77487 -3.163845,-2.77813 -0.324619,-0.008 -2.260113,1.87444 -2.260113,2.19767 0,0.13426 0.74414,0.94354 1.653645,1.79839 l 1.653646,1.55427 -1.653646,1.55427 c -0.909505,0.85485 -1.653645,1.65351 -1.653645,1.77479 0,0.32676 1.914434,2.22815 2.236509,2.22127 0.152368,-0.003 1.58672,-1.25341 3.187449,-2.77813 z m -3.836458,-25.27961 v -5.309499 l 0.595312,0.173112 c 0.327422,0.09521 2.589609,2.16405 5.027083,4.597417 3.538904,3.53294 4.431771,4.56777 4.431771,5.13638 v 0.71208 h -5.027083 -5.027083 z"
         id="path3" /></g></g></svg>
