<?xml version="1.0" encoding="UTF-8" standalone="no"?>
<!-- Created with Inkscape (http://www.inkscape.org/) -->

<svg
   width="210mm"
   height="210mm"
   viewBox="0 0 210 210"
   version="1.1"
   id="svg1"
   xml:space="preserve"
   inkscape:version="1.3.2 (091e20e, 2023-11-25, custom)"
   sodipodi:docname="megaphone.svg"
   inkscape:export-filename="..\Iconos\megaphone.svg"
   inkscape:export-xdpi="96"
   inkscape:export-ydpi="96"
   xmlns:inkscape="http://www.inkscape.org/namespaces/inkscape"
   xmlns:sodipodi="http://sodipodi.sourceforge.net/DTD/sodipodi-0.dtd"
   xmlns="http://www.w3.org/2000/svg"
   xmlns:svg="http://www.w3.org/2000/svg"><sodipodi:namedview
     id="namedview1"
     pagecolor="#ffffff"
     bordercolor="#000000"
     borderopacity="0.25"
     inkscape:showpageshadow="2"
     inkscape:pageopacity="0.0"
     inkscape:pagecheckerboard="0"
     inkscape:deskcolor="#d1d1d1"
     inkscape:document-units="mm"
     inkscape:zoom="0.51213161"
     inkscape:cx="220.64641"
     inkscape:cy="323.15912"
     inkscape:window-width="1440"
     inkscape:window-height="829"
     inkscape:window-x="-8"
     inkscape:window-y="733"
     inkscape:window-maximized="1"
     inkscape:current-layer="layer1" /><defs
     id="defs1" /><g
     inkscape:label="Capa 1"
     inkscape:groupmode="layer"
     id="layer1"><path
       style="fill:#ffffff;stroke-width:4.30112;stroke:none;stroke-opacity:1;fill-opacity:1"
       d="M 51.265799,194.66913 C 44.956837,190.2502 39.42113,170.78023 39.288183,152.54193 l -0.09247,-12.69616 -9.861682,-0.39096 c -8.789974,-0.34839 -10.38814,-0.7619 -14.706673,-3.8049 -2.664759,-1.8777 -6.0365756,-5.67097 -7.4928893,-8.42954 -2.5123257,-4.75871 -2.6478968,-6.16246 -2.6478968,-27.417587 0,-21.255077 0.1354855,-22.658876 2.6478958,-27.417586 1.4563137,-2.75852 4.8277003,-6.551802 7.4919403,-8.429497 l 4.844086,-3.414011 46.278707,-0.638242 c 44.215549,-0.60977 46.633849,-0.754287 54.244709,-3.241794 13.18942,-4.310748 21.83281,-9.598944 41.80792,-25.578919 10.47631,-8.380979 19.86405,-15.551368 20.86166,-15.934167 4.87624,-1.8712 10.59799,0.258067 13.38859,4.982024 1.63149,2.761961 1.89508,7.150303 1.89508,31.553125 v 28.344992 l 3.51998,2.602433 c 1.93597,1.431367 4.48523,4.728301 5.66504,7.326518 4.21338,9.279312 1.6241,21.627691 -5.66504,27.016771 l -3.51998,2.60243 v 28.34498 c 0,24.40287 -0.26367,28.79121 -1.89508,31.55312 -2.7906,4.72414 -8.51235,6.85326 -13.38859,4.98207 -0.99761,-0.3828 -10.38535,-7.55319 -20.86166,-15.93417 -28.03687,-22.42937 -39.01623,-27.40374 -63.063204,-28.57175 l -13.289239,-0.64551 -0.798377,4.25552 c -1.725652,9.19867 0.08301,18.64432 5.664959,29.5827 5.786118,11.33859 6.097518,13.00208 3.315814,17.71121 -2.9245,4.95075 -5.935839,5.67806 -23.510327,5.67806 -13.159476,0 -16.693013,-0.34924 -18.855572,-1.86406 z M 175.18702,99.766954 V 49.658905 l -10.38564,8.026543 c -12.2842,9.493894 -21.27339,14.635276 -32.67402,18.688087 -8.96306,3.186266 -25.0284,6.359285 -32.197629,6.359285 h -4.402962 v 17.070049 17.070051 h 4.402962 c 7.604889,0 23.609729,3.27831 33.338069,6.82871 11.20183,4.08817 21.28089,9.99273 32.81519,19.22397 4.69428,3.75697 8.66304,6.85752 8.81953,6.89011 0.15652,0.0345 0.28428,-22.48932 0.28428,-50.048756 z"
       id="path8" /></g></svg>
