<?xml version="1.0" encoding="UTF-8" standalone="no"?>
<!-- Created with Inkscape (http://www.inkscape.org/) -->

<svg
   width="210mm"
   height="210mm"
   viewBox="0 0 210 210"
   version="1.1"
   id="svg1"
   xml:space="preserve"
   inkscape:version="1.3.2 (091e20e, 2023-11-25, custom)"
   sodipodi:docname="monitor.svg"
   inkscape:export-filename="..\Iconos\monitor.svg"
   inkscape:export-xdpi="96"
   inkscape:export-ydpi="96"
   xmlns:inkscape="http://www.inkscape.org/namespaces/inkscape"
   xmlns:sodipodi="http://sodipodi.sourceforge.net/DTD/sodipodi-0.dtd"
   xmlns="http://www.w3.org/2000/svg"
   xmlns:svg="http://www.w3.org/2000/svg"><sodipodi:namedview
     id="namedview1"
     pagecolor="#ffffff"
     bordercolor="#000000"
     borderopacity="0.25"
     inkscape:showpageshadow="2"
     inkscape:pageopacity="0.0"
     inkscape:pagecheckerboard="0"
     inkscape:deskcolor="#d1d1d1"
     inkscape:document-units="mm"
     inkscape:zoom="0.51213161"
     inkscape:cx="220.64641"
     inkscape:cy="323.15912"
     inkscape:window-width="1440"
     inkscape:window-height="829"
     inkscape:window-x="-8"
     inkscape:window-y="733"
     inkscape:window-maximized="1"
     inkscape:current-layer="layer1" /><defs
     id="defs1" /><g
     inkscape:label="Capa 1"
     inkscape:groupmode="layer"
     id="layer1"><g
       id="g1"
       transform="matrix(4.3239223,0,0,4.3239223,-357.92478,-422.62822)"
       style="fill:#ffffff;fill-opacity:1"><path
         style="fill:#ffffff;fill-opacity:1"
         d="m 94.121232,142.50893 c -0.329108,-0.41964 -0.31975,-0.429 0.09989,-0.0999 0.254662,0.19972 0.463021,0.40808 0.463021,0.46302 0,0.21776 -0.217272,0.0776 -0.562915,-0.36313 z m 25.433748,0.36313 c 0,-0.0549 0.20836,-0.2633 0.46302,-0.46302 0.41964,-0.32911 0.429,-0.31975 0.0999,0.0999 -0.34565,0.44073 -0.56292,0.58089 -0.56292,0.36313 z m -25.908278,-1.64195 c 0.0127,-0.30822 0.07539,-0.37092 0.159852,-0.15985 0.07643,0.191 0.06703,0.4192 -0.02089,0.50712 -0.08792,0.0879 -0.150452,-0.0684 -0.138964,-0.34727 z m 26.722918,0 c 0.0127,-0.30822 0.0754,-0.37092 0.15985,-0.15985 0.0764,0.191 0.067,0.4192 -0.0209,0.50712 -0.0879,0.0879 -0.15045,-0.0684 -0.13896,-0.34727 z m -26.479223,-1.00389 c 0,-0.0549 0.20836,-0.2633 0.463021,-0.46302 0.419644,-0.3291 0.429002,-0.31975 0.09989,0.0999 -0.345644,0.44073 -0.562916,0.58089 -0.562916,0.36312 z m 25.895413,-0.36312 c -0.3291,-0.41965 -0.31974,-0.429 0.0999,-0.0999 0.44073,0.34565 0.58089,0.56292 0.36313,0.56292 -0.055,0 -0.26331,-0.20836 -0.46303,-0.46302 z M 83.165599,118.10112 c 0,-7.63984 0.03381,-10.76524 0.07513,-6.94531 0.04132,3.81992 0.04132,10.0707 0,13.89062 -0.04132,3.81992 -0.07513,0.69453 -0.07513,-6.94531 z m 47.889581,0 c 0,-7.63984 0.0338,-10.76524 0.0751,-6.94531 0.0413,3.81992 0.0413,10.0707 0,13.89062 -0.0413,3.81992 -0.0751,0.69453 -0.0751,-6.94531 z m -42.3346,0 c 0,-6.6212 0.03435,-9.32987 0.07633,-6.01927 0.04198,3.3106 0.04198,8.72794 0,12.03854 -0.04198,3.3106 -0.07633,0.60193 -0.07633,-6.01927 z m 36.77708,0 c 0,-6.6212 0.0344,-9.32987 0.0763,-6.01927 0.042,3.3106 0.042,8.72794 0,12.03854 -0.042,3.3106 -0.0763,0.60193 -0.0763,-6.01927 z"
         id="path3" /><path
         style="fill:#ffffff;fill-opacity:1"
         d="m 83.43002,118.10112 c 0,-7.49432 0.03388,-10.56018 0.07528,-6.81302 0.0414,3.74716 0.0414,9.87888 0,13.62604 -0.0414,3.74716 -0.07528,0.6813 -0.07528,-6.81302 z m 47.36042,0 c 0,-7.49432 0.0339,-10.56018 0.0753,-6.81302 0.0414,3.74716 0.0414,9.87888 0,13.62604 -0.0414,3.74716 -0.0753,0.6813 -0.0753,-6.81302 z m -42.334443,0 c 0,-6.6212 0.03435,-9.32987 0.07633,-6.01927 0.04198,3.3106 0.04198,8.72794 0,12.03854 -0.04198,3.3106 -0.07633,0.60193 -0.07633,-6.01927 z m 37.306253,0 c 0,-6.6212 0.0344,-9.32987 0.0763,-6.01927 0.042,3.3106 0.042,8.72794 0,12.03854 -0.042,3.3106 -0.0763,0.60193 -0.0763,-6.01927 z"
         id="path2" /><path
         style="fill:#ffffff;fill-opacity:1"
         d="m 94.85212,142.68817 c -0.964109,-0.75837 -0.964109,-2.11364 0,-2.87201 0.618527,-0.48654 1.060189,-0.54837 3.916671,-0.54837 h 3.219529 l 0.58125,-1.80471 c 0.31968,-0.99259 0.58124,-1.87945 0.58124,-1.9708 0,-0.0914 -3.845276,-0.20197 -8.545062,-0.24581 -9.464381,-0.0883 -9.419156,-0.0802 -10.516576,-1.88004 -0.494357,-0.81077 -0.515547,-1.43818 -0.515547,-15.26531 0,-13.82713 0.02119,-14.45454 0.515547,-15.26531 0.28355,-0.46504 0.843416,-1.06035 1.244145,-1.32292 0.686845,-0.45004 1.935371,-0.4774 21.786243,-0.4774 19.85088,0 21.09941,0.0274 21.78625,0.4774 0.40073,0.26257 0.9606,0.85788 1.24415,1.32292 0.49435,0.81077 0.51554,1.43818 0.51554,15.26531 0,13.82713 -0.0212,14.45454 -0.51554,15.26531 -1.09743,1.79982 -1.0522,1.79174 -10.51658,1.88004 -4.69979,0.0438 -8.54507,0.15446 -8.54507,0.24581 0,0.0914 0.26156,0.97821 0.58125,1.9708 l 0.58124,1.80471 h 3.21954 c 2.85648,0 3.29814,0.0618 3.91667,0.54837 0.50562,0.39772 0.69714,0.79221 0.69714,1.436 0,0.64379 -0.19152,1.03828 -0.69714,1.43601 -0.68114,0.53578 -0.96271,0.54837 -12.26745,0.54837 -11.30473,0 -11.586301,-0.0126 -12.26744,-0.54837 z m 31.05286,-24.58705 V 106.19487 H 107.11956 88.334147 v 11.90625 11.90625 h 18.785413 18.78542 z"
         id="path1" /></g></g></svg>
